inDegrees=no
num_controls=7
num_derivatives=13
num_iterations=73
num_multipliers=7
num_parameters=0
num_slacks=7
num_states=26
objective=0.333182
objective_accelerations=0.037783
objective_balance=0.001360
objective_effort=0.027710
objective_height=0.264912
objective_ligament=0.001417
solver_duration=758.916008
status=Solve_Succeeded
success=true
DataType=double
version=3
OpenSimVersion=4.5
endheader
time	/jointset/ground_pelvis/pelvis_tilt/value	/jointset/ground_pelvis/pelvis_tx/value	/jointset/ground_pelvis/pelvis_ty/value	/jointset/hip_r/hip_flexion_r/value	/jointset/hip_r/hip_adduction_r/value	/jointset/hip_r/hip_rotation_r/value	/jointset/back/lumbar_extension/value	/jointset/patellofemoral_r/patellar_flexion_r/value	/jointset/knee_r/knee_flexion_r/value	/jointset/knee_r/knee_adduction_r/value	/jointset/knee_r/knee_rotation_r/value	/jointset/ankle_r/ankle_angle_r/value	/jointset/subtalar_r/subtalar_angle_r/value	/jointset/ground_pelvis/pelvis_tilt/speed	/jointset/ground_pelvis/pelvis_tx/speed	/jointset/ground_pelvis/pelvis_ty/speed	/jointset/hip_r/hip_flexion_r/speed	/jointset/hip_r/hip_adduction_r/speed	/jointset/hip_r/hip_rotation_r/speed	/jointset/back/lumbar_extension/speed	/jointset/patellofemoral_r/patellar_flexion_r/speed	/jointset/knee_r/knee_flexion_r/speed	/jointset/knee_r/knee_adduction_r/speed	/jointset/knee_r/knee_rotation_r/speed	/jointset/ankle_r/ankle_angle_r/speed	/jointset/subtalar_r/subtalar_angle_r/speed	/forceset/tau_hip_flexion_r	/forceset/tau_hip_adduction_r	/forceset/tau_hip_rotation_r	/forceset/tau_knee_flexion_r	/forceset/tau_ankle_angle_r	/forceset/tau_subtalar_angle_r	/forceset/tau_lumbar_extension	lambda_cid13_p0	lambda_cid14_p0	lambda_cid14_p1	lambda_cid14_p2	lambda_cid14_p3	lambda_cid14_p4	lambda_cid14_p5	/jointset/ground_pelvis/pelvis_tilt/accel	/jointset/ground_pelvis/pelvis_tx/accel	/jointset/ground_pelvis/pelvis_ty/accel	/jointset/hip_r/hip_flexion_r/accel	/jointset/hip_r/hip_adduction_r/accel	/jointset/hip_r/hip_rotation_r/accel	/jointset/back/lumbar_extension/accel	/jointset/patellofemoral_r/patellar_flexion_r/accel	/jointset/knee_r/knee_flexion_r/accel	/jointset/knee_r/knee_adduction_r/accel	/jointset/knee_r/knee_rotation_r/accel	/jointset/ankle_r/ankle_angle_r/accel	/jointset/subtalar_r/subtalar_angle_r/accel	gamma_cid13_p0	gamma_cid14_p0	gamma_cid14_p1	gamma_cid14_p2	gamma_cid14_p3	gamma_cid14_p4	gamma_cid14_p5
1.5	-0.1158542198726732	0.03575137562350009	0.8125706660876953	0.8474142802810047	-0.2269329811817627	-0.1194774609728191	-0.627377429169517	0.9488187847663833	0.9488187847663742	-0.03692648081899894	0.1745267827127867	0.3076389854517201	0.1375360964831107	0.5363076577622831	0.227403194282781	0.5263540228849617	-2.118988244139203	0.001854154876054384	-0.1824064903799217	0.8011007146043948	-1.990471452453662	-1.990471452453658	0.4919114223838367	7.783613496563458e-05	-0.5263490720567445	-0.2065109081392957	-0.1762733341740519	0.02031634160735915	0.01762783613999752	-0.2848486293119756	-0.006408566900890545	-0.007334104443123108	0.2215975630027003	-8.679267932268463	-44.28788439374222	-10.42790906644776	1.499851356740771	-1.469638982157351	-627.2483302858736	51.73609308552653	0.1748811421398917	0.570198790102565	-0.5507471496927981	-1.007518379746667	-0.2666503647714678	-0.6529431016007521	1.819955433629278	-1.343176939439083	-1.343176939439083	0.480697271674534	-0.0277562512034722	-0.6901852175984486	-0.4657045390665075	1.841058301676638e-07	1.54401088577855e-07	-1.113547190779862e-06	1.579478021078023e-06	1.603561073374477e-08	3.542750186824444e-07	-8.237796115399927e-07
1.51	-0.1104827551507766	0.03805366361651989	0.8178056148301993	0.8261760665120956	-0.2269287648576551	-0.1213337772422358	-0.6192771339174158	0.9288494606436828	0.9288494606436773	-0.03198150222154736	0.1745273661700313	0.3023415014005969	0.1354465554257424	0.5379021190940618	0.233024241180864	0.5205227083101346	-2.128368852821969	-0.001018343180509678	-0.1888736832237946	0.8188377068206368	-2.003115937256623	-2.003115937256621	0.4970402726751806	3.800511182399849e-05	-0.5330620677971168	-0.2113539221273479	-0.1684144914428768	0.01831422577937043	0.0177948303880435	-0.2813207319273009	-0.004280465077665898	-0.008011823943804987	0.2145016770237401	-9.721123957329763	-43.30175210665369	-10.38102787906469	1.299852581831906	-1.586097473962485	-622.0918483684242	51.7645790585723	0.1392653400240547	0.5535356552337405	-0.616205603381162	-0.8604658167986823	-0.2985155057336031	-0.6458624799838474	1.732476766405651	-1.18350349661492	-1.183503496615326	0.5222428883667098	0.008039882492692125	-0.6489665127886697	-0.4870762708074309	1.763483980035453e-07	1.491671476476808e-07	-1.063853924610326e-06	1.537687305587053e-06	1.36584164031266e-08	3.534462608108847e-07	-8.208064255139787e-07
1.52	-0.1050978384732947	0.04041125768163516	0.8229788740285543	0.8048526199155089	-0.2269534667100418	-0.1232552164609317	-0.6110030876129946	0.9087620078237724	0.908762007823774	-0.02698658232508796	0.1745275785991171	0.2969794654399639	0.1333098889400668	0.5389980488789209	0.2384644087018738	0.5140161140551586	-2.136034809675023	-0.003929480422459136	-0.1954310802357998	0.8358509250682322	-2.014097191895199	-2.0140971918952	0.501899682186623	3.630503169909615e-06	-0.5392594539587722	-0.2159359938007151	-0.1605556487117013	0.01631210995137465	0.01796182463612328	-0.2777928345426229	-0.002152363254443604	-0.0086895434444994	0.2074057910447815	-10.77353349188914	-42.31498025532878	-10.33191004779431	1.09706999751707	-1.715817681510982	-616.9216558583025	51.85618191773177	0.07517483275599358	0.5340229146878535	-0.6858030857225877	-0.6645880138045113	-0.2743782018485519	-0.6709839352272446	1.67520063989999	-1.010530906562326	-1.010530906562327	0.4268091156941928	-0.02666496830594884	-0.587063301855147	-0.4135160761295364	1.735416103411073e-07	1.401587229695041e-07	-1.130959670416204e-06	1.428366232615023e-06	2.666411375595877e-08	3.48846346483279e-07	-8.769760626678459e-07
1.53	-0.09970449905120513	0.04282228820635672	0.8280837569027653	0.783461159669115	-0.2270073840690436	-0.1252432025231658	-0.6025626138128718	0.8885730878404788	0.8885730878404825	-0.02194491113909305	0.1745277173848131	0.2915580989826737	0.1311288707234698	0.5395830669861341	0.2437049062886127	0.5068543561789595	-2.141962307437298	-0.006859390266219926	-0.2021633547391043	0.8521119347351302	-2.023396999537305	-2.023396999537306	0.5064044312827259	1.716012262709472e-05	-0.54492308365997	-0.2202229376978724	-0.1526973461526969	0.0141052748895643	0.01816126096707528	-0.2745112420649374	5.980839694341744e-05	-0.009439703901208346	0.2003095978726525	-11.82644486107179	-41.32833983959062	-10.32124656316029	0.9083801104075877	-1.817278091327804	-612.0470985779432	51.95302581377175	0.03715921650058338	0.5135590327942651	-0.7472107034092605	-0.5125769259387373	-0.3030393746283876	-0.6736687501249408	1.581766096979291	-0.8462703707118349	-0.8462703707117795	0.4576056465601376	0.01450111957922277	-0.5423468486319678	-0.4296648170744674	1.759948824617046e-07	1.271399093090748e-07	-1.322164366445959e-06	1.247294154819366e-06	5.601413352245675e-08	3.402395784211244e-07	-9.959849494503363e-07
1.54	-0.09430791066468236	0.04528462287737128	0.8331138524852461	0.7620192751913998	-0.2270907489262832	-0.1272983752388804	-0.5939634869227006	0.8682998568452285	0.8682998568452341	-0.01685913289414251	0.1745278193052046	0.2860828294194957	0.1289063068137878	0.5396478417652046	0.2487252379604722	0.4990586557091199	-2.146119655939565	-0.009818980069518722	-0.2088684109321243	0.8675815430778051	-2.030959394286494	-2.030959394286494	0.5107210939785035	-3.742557609533263e-06	-0.5500400751363637	-0.2242451324176564	-0.1448390435936907	0.01189843982774809	0.01836069729803663	-0.2712296495872507	0.002271980048328396	-0.01018986435792682	0.1932134047005263	-12.87662889024665	-40.34211073454033	-10.30983767285657	0.7186373489480308	-1.926123501004831	-607.1718700567081	52.10577304444231	-0.02887383287246149	0.489989731711914	-0.8125916044506998	-0.3105581618030758	-0.2803141937561552	-0.6655402731703658	1.516920375055425	-0.6630483279786564	-0.6630483279786576	0.3891918356291231	-0.03355142824469986	-0.4777356568943937	-0.3605662406548992	1.795802058342454e-07	1.144777305268156e-07	-1.524876271967816e-06	1.05477014987137e-06	8.693573438580403e-08	3.283960502965542e-07	-1.108175694533477e-06
1.55	-0.08891329393826623	0.047795994750113	0.8380628968092221	0.7405447447258483	-0.2272036904559436	-0.1294212983851636	-0.5852137174931263	0.8479597150461663	0.8479597150461637	-0.01173199385520908	0.1745279140575656	0.2805592126324021	0.1266451361655955	0.5391882770344253	0.2535053505458288	0.4906520094005504	-2.148482444236049	-0.01276660351268313	-0.215715006446966	0.8822276403289232	-2.036766290785613	-2.036766290785614	0.5146612632943633	1.581668065778531e-05	-0.5545851028540324	-0.2279330942371337	-0.1370379448378944	0.009593313886739877	0.01855453127722187	-0.2681296412723906	0.004499111875964296	-0.01103702144793503	0.1861687618591197	-13.91967278448905	-39.38232613510851	-10.35414844273134	0.5480168676006771	-1.992388582951087	-602.6309187330091	52.21779093606113	-0.067574277584246	0.4654816860169828	-0.869370262575606	-0.1535296123106942	-0.3016100845276363	-0.693797239785377	1.416749023999302	-0.4941465370004524	-0.494146537000622	0.3893635568794381	0.01877476848531879	-0.4280901480458319	-0.3647321056640758	1.844698491275037e-07	1.022264571476654e-07	-1.740846484078398e-06	8.490515332043731e-07	1.196680699911733e-07	3.128232116652879e-07	-1.212510754615193e-06
1.56	-0.08352588815603676	0.05035385968152233	0.8429249408464092	0.7190557082875858	-0.2273460329530236	-0.1316126030964245	-0.5763218281662684	0.8275705770368851	0.8275705770368795	-0.006566866307665798	0.1745280174360362	0.2749931048043639	0.1243487217085941	0.5382056529274969	0.2580238496939938	0.4816585983513448	-2.149020850482115	-0.0156991735530841	-0.2225447239275808	0.8960055225344068	-2.040758636329608	-2.04075863632961	0.5183187957028277	-2.017336161323232e-06	-0.5585382833254108	-0.2312938941794093	-0.1292368460820957	0.00728818794571991	0.01874836525645962	-0.2650296329575266	0.006726243703595451	-0.01188417853796576	0.1791241190177172	-14.9518752052403	-38.42373377171566	-10.39862495877268	0.3773735335802152	-2.061759825430657	-598.1014149644454	52.37766008857611	-0.1334857081022544	0.4376670442735102	-0.9299445525779434	0.05431824828075826	-0.2773035132034732	-0.6621646663250051	1.343277365928575	-0.3001381369537119	-0.3001381369537123	0.3326644541499774	-0.04103007926197671	-0.3593662076363679	-0.2951338652145794	1.939152801460729e-07	8.987345543717228e-08	-2.021984155099847e-06	5.969008638942754e-07	1.604647253084659e-07	2.88002404493228e-07	-1.326263402821546e-06
1.57	-0.07815097656378864	0.05295555907312904	0.8476942324850046	0.6975704016990752	-0.2275175808967589	-0.1338727912694388	-0.5672966870371445	0.8071505000616808	0.8071505000616879	-0.001366993317033445	0.1745282783836648	0.2693904303261332	0.1220203919151571	0.5366832692084158	0.2622676306767681	0.4721124888894596	-2.147733013011218	-0.01861719398712603	-0.2294280712865132	0.9088601184172158	-2.042948958965753	-2.04294895896575	0.5216749391230757	2.405046248715187e-05	-0.5619004573228902	-0.2343364614565941	-0.1212787884651677	0.004667399433867649	0.01894600668512922	-0.2625856532164599	0.009549622096247176	-0.0128233431890739	0.1720090311297404	-15.97058932797424	-37.31014462951038	-10.4705760900619	0.22784965135261	-2.237764301900939	-594.0218834329846	52.60823446021779	-0.1756168532279998	0.4105220594504939	-0.9799840797214387	0.2121421910686259	-0.3002637775484571	-0.6914840066299068	1.232162968567386	-0.1323529197519643	-0.1323529197511384	0.3395913391220494	0.01986850381878348	-0.3101194980076608	-0.3038746096144455	2.090554458212807e-07	7.73932933125005e-08	-2.384581149759879e-06	2.867101287803017e-07	2.113417802656626e-07	2.516216366451762e-07	-1.451788036183694e-06
1.58	-0.07279408923861486	0.05559825396139786	0.8523654550416357	0.6761071986241892	-0.2277185515386521	-0.1361998257632249	-0.5581478774953698	0.7867177451415651	0.7867177451415638	0.003866941518460884	0.1745278886681446	0.263757038807486	0.1196626251588192	0.5346007995126477	0.266222949026416	0.4620447819584522	-2.144600147757342	-0.02158371318292356	-0.235913988083545	0.9207392050644305	-2.043294225314181	-2.043294225314172	0.5251311646697177	-0.0001321499632432052	-0.5646816914085283	-0.2371812867595394	-0.1133207308482269	0.002046610922029622	0.01914364811362873	-0.2601416734754019	0.0123730004889059	-0.0137625078401428	0.1648939432417729	-16.97376039921929	-36.19751574425469	-10.54363666474931	0.07957753608342107	-2.41237436149886	-589.9499333166253	52.8705263068048	-0.2455029034395613	0.3799745176481876	-1.034264046402427	0.4233238048765764	-0.2870032655545832	-0.5826785539449136	1.148175518809768	0.06887312058973606	0.06887312058973626	0.3526808794287264	-0.07748372413773359	-0.2431782252681896	-0.2555854703666793	2.109553868957618e-07	2.382526022562474e-08	-3.007410000216778e-06	-6.692963190284219e-07	3.232452197050545e-07	1.07910830904542e-07	-1.513587573840195e-06
1.59	-0.067460859820432	0.05827894566572107	0.8569334546875703	0.6546849829757757	-0.227948088714561	-0.1385952520869154	-0.5488851185314521	0.766290675457418	0.7662906754574205	0.009129779363568501	0.1745274455974593	0.258099196802263	0.1172796264153155	0.5319616021304032	0.2698563407430579	0.4514762654997729	-2.139522428447688	-0.02431929012474721	-0.2431037834817774	0.9316406857588462	-2.041783245719306	-2.041783245719299	0.5274371866471335	2.141928368203167e-05	-0.5667808834634505	-0.2393692445719635	-0.1057509199881271	-0.0002650445859632609	0.01911874484762115	-0.2572812070078914	0.01440533001789072	-0.0146582945078456	0.158072258867933	-17.96007479604798	-35.36245960037022	-10.63750759899882	-0.0756025119282641	-2.368101176776566	-586.2515474535131	53.04602211683425	-0.2856504285012755	0.3462906378965112	-1.080048488268831	0.5980634912982443	-0.267117403749639	-0.7771484371832962	1.035349050803691	0.2426431863939637	0.2426431863938201	0.1689066737258565	0.057701384686019	-0.1772186731389976	-0.1941680664685685	1.948864517264007e-07	-8.550488345281051e-08	-3.983410654969406e-06	-2.5017669483514e-06	5.179701809417068e-07	-1.814621691188746e-07	-1.488903053039034e-06
